<svg xmlns="http://www.w3.org/2000/svg" width="1200" height="520" viewBox="0 0 1200 520">
  <defs>
    <linearGradient id="glass" x1="0" y1="0" x2="0" y2="1">
      <stop offset="0" stop-color="#ffffff" stop-opacity="0.78"/>
      <stop offset="0.55" stop-color="#ffffff" stop-opacity="0.55"/>
      <stop offset="1" stop-color="#ffffff" stop-opacity="0.38"/>
    </linearGradient>

    <filter id="shadow" x="-20%" y="-20%" width="140%" height="160%">
      <feDropShadow dx="0" dy="10" stdDeviation="16" flood-color="#0b2a52" flood-opacity="0.18"/>
      <feDropShadow dx="0" dy="2" stdDeviation="6" flood-color="#0b2a52" flood-opacity="0.18"/>
    </filter>

    <filter id="innerGlow" x="-20%" y="-20%" width="140%" height="140%">
      <feGaussianBlur stdDeviation="6" result="b"/>
      <feComposite in="b" in2="SourceAlpha" operator="in" result="m"/>
      <feColorMatrix in="m" type="matrix"
        values="1 0 0 0 1
                0 1 0 0 1
                0 0 1 0 1
                0 0 0 .18 0" result="c"/>
      <feComposite in="SourceGraphic" in2="c" operator="over"/>
    </filter>
  </defs>

  <path d="M 140 390 Q 175.0 408 210.0 390 Q 245.0 408 280.0 390 Q 315.0 408 350.0 390 Q 385.0 408 420.0 390 Q 455.0 408 490.0 390 Q 525.0 408 560.0 390 Q 595.0 408 630.0 390 Q 665.0 408 700.0 390 Q 735.0 408 770.0 390 Q 805.0 408 840.0 390 Q 875.0 408 910.0 390 Q 945.0 408 980.0 390 Q 1015.0 408 1050.0 390 Q 1055.0 408 1060 390 C 1135 390 1185 345 1170 290 C 1160 235 1120 210 1075 225 C 1065 165 1015 135 960 155 C 930 70 840 55 780 95 C 750 20 650 10 590 65 C 560 10 460 15 420 80 C 360 45 295 75 275 135 C 200 130 155 170 170 225 C 70 235 75 330 140 330 C 115 345 120 372 140 390 Z" fill="url(#glass)" filter="url(#shadow)"/>
  <path d="M 140 390 Q 175.0 408 210.0 390 Q 245.0 408 280.0 390 Q 315.0 408 350.0 390 Q 385.0 408 420.0 390 Q 455.0 408 490.0 390 Q 525.0 408 560.0 390 Q 595.0 408 630.0 390 Q 665.0 408 700.0 390 Q 735.0 408 770.0 390 Q 805.0 408 840.0 390 Q 875.0 408 910.0 390 Q 945.0 408 980.0 390 Q 1015.0 408 1050.0 390 Q 1055.0 408 1060 390 C 1135 390 1185 345 1170 290 C 1160 235 1120 210 1075 225 C 1065 165 1015 135 960 155 C 930 70 840 55 780 95 C 750 20 650 10 590 65 C 560 10 460 15 420 80 C 360 45 295 75 275 135 C 200 130 155 170 170 225 C 70 235 75 330 140 330 C 115 345 120 372 140 390 Z" fill="none" stroke="#ffffff" stroke-opacity="0.55" stroke-width="2.2" filter="url(#innerGlow)"/>
</svg>
